<?xml version="1.0" encoding="iso-8859-1"?>
<!-- Uploaded to: SVG Repo, www.svgrepo.com, Generator: SVG Repo Mixer Tools -->
<svg fill="#EDE1Dd" height="800px" width="800px" version="1.1" id="Layer_1" xmlns="http://www.w3.org/2000/svg" xmlns:xlink="http://www.w3.org/1999/xlink" 
	 viewBox="0 0 512 512" xml:space="preserve">
<g>
	<g>
		<g>
			<path d="M85.333,170.667c39.659,0,72.768-27.285,82.304-64h323.029c11.797,0,21.333-9.536,21.333-21.333
				C512,73.536,502.464,64,490.667,64H167.637c-9.536-36.715-42.645-64-82.304-64C38.272,0,0,38.272,0,85.333
				S38.272,170.667,85.333,170.667z"/>
			<path d="M426.667,341.333c-39.659,0-72.768,27.285-82.304,64H21.333C9.536,405.333,0,414.869,0,426.667S9.536,448,21.333,448
				h323.029c9.536,36.715,42.645,64,82.304,64C473.728,512,512,473.728,512,426.667S473.728,341.333,426.667,341.333z"/>
			<path d="M490.667,234.667H338.304c-9.536-36.715-42.645-64-82.304-64s-72.768,27.285-82.304,64H21.333
				C9.536,234.667,0,244.203,0,256s9.536,21.333,21.333,21.333h152.363c9.536,36.715,42.645,64,82.304,64s72.768-27.285,82.304-64
				h152.363c11.797,0,21.333-9.536,21.333-21.333S502.464,234.667,490.667,234.667z"/>
		</g>
	</g>
</g>
</svg>