<?xml version="1.0" encoding="iso-8859-1"?>
<!-- Uploaded to: SVG Repo, www.svgrepo.com, Generator: SVG Repo Mixer Tools -->
<svg version="1.1" id="Layer_1" xmlns="http://www.w3.org/2000/svg" xmlns:xlink="http://www.w3.org/1999/xlink" 
	 viewBox="0 0 496 496" xml:space="preserve">
<path style="fill:#DD3E95;" d="M363.6,224V37.6C363.6,15.2,348.4,0,326,0H169.2c-22.4,0-37.6,15.2-37.6,37.6V224H363.6z"/>
<path style="fill:#BC086B;" d="M131.6,224h232V37.6C363.6,15.2,348.4,0,326,0H179.6"/>
<path style="fill:#2F96C9;" d="M131.6,272v186.4c0,22.4,23.2,37.6,45.6,37.6h149.6c22.4,0,37.6-15.2,37.6-37.6V272H131.6z"/>
<path style="fill:#207EB7;" d="M181.2,272l-49.6,186.4c0,22.4,23.2,37.6,45.6,37.6h149.6c22.4,0,37.6-15.2,37.6-37.6V272H181.2z"/>
<rect x="131.6" y="224" style="fill:#FFFFFF;" width="232" height="48"/>
<rect x="179.6" y="224" style="fill:#EFE6D8;" width="184" height="48"/>
<rect x="275.6" y="224" style="fill:#DDD3C5;" width="88" height="48"/>
<path style="fill:#095A91;" d="M179.6,272v224H326c22.4,0,37.6-15.2,37.6-37.6V272H179.6z"/>
<path style="fill:#044D7F;" d="M179.6,496H326c22.4,0,37.6-15.2,37.6-37.6V272"/>
<path style="fill:#911743;" d="M326,0H179.6v224h184V37.6C363.6,15.2,348.4,0,326,0z"/>
<polyline style="fill:#7F113E;" points="179.6,224 363.6,224 363.6,40 "/>
</svg>