<?xml version="1.0" encoding="utf-8"?>
<!-- Uploaded to: SVG Repo, www.svgrepo.com, Generator: SVG Repo Mixer Tools -->
<svg width="800px" height="800px" viewBox="0 0 1024 1024" class="icon"  version="1.1" xmlns="http://www.w3.org/2000/svg"><path d="M951.327691 614.917881h-6.670613v-6.670613c0-3.621482-3.050154-6.670613-6.670612-6.670613s-6.670613 3.050154-6.670613 6.670613v6.670613h-6.670613c-3.621482 0-6.670613 3.050154-6.670613 6.670613s3.050154 6.670613 6.670613 6.670613h6.670613v6.670613c0 3.621482 3.050154 6.670613 6.670613 6.670613s6.670613-3.050154 6.670612-6.670613v-6.670613h6.670613c3.621482 0 6.670613-3.050154 6.670613-6.670613s-3.04913-6.670613-6.670613-6.670613z" fill="#F16723" /><path d="M430.604188 98.958517h-6.670613v-6.670613c0-3.621482-3.04913-6.670613-6.670612-6.670613s-6.670613 3.04913-6.670613 6.670613v6.670613h-6.670613c-3.621482 0-6.670613 3.04913-6.670613 6.670613 0 3.621482 3.04913 6.670613 6.670613 6.670612h6.670613v6.670613c0 3.621482 3.04913 6.670613 6.670613 6.670613s6.670613-3.04913 6.670612-6.670613v-6.670613h6.670613c3.621482 0 6.670613-3.04913 6.670613-6.670612 0-3.621482-3.04913-6.670613-6.670613-6.670613z" fill="#4E9BD4" /><path d="M82.755531 706.596573c-10.864447 0-19.631977-8.76753-19.631977-19.631977s8.76753-19.631977 19.631977-19.631977 19.631977 8.76753 19.631978 19.631977-8.76753 19.631977-19.631978 19.631977z m0-25.921705c-3.43104 0-6.289728 2.858688-6.289727 6.289728s2.858688 6.289728 6.289727 6.289728 6.289728-2.858688 6.289728-6.289728-2.858688-6.289728-6.289728-6.289728z" fill="#F16723" /><path d="M913.207417 913.019022m-4.002368 0a4.002368 4.002368 0 1 0 8.004736 0 4.002368 4.002368 0 1 0-8.004736 0Z" fill="" /><path d="M99.719263 632.072056m-4.002367 0a4.002368 4.002368 0 1 0 8.004735 0 4.002368 4.002368 0 1 0-8.004735 0Z" fill="" /><path d="M156.708721 154.423409m-4.002368 0a4.002368 4.002368 0 1 0 8.004735 0 4.002368 4.002368 0 1 0-8.004735 0Z" fill="" /><path d="M865.175932 321.962788m-4.002367 0a4.002368 4.002368 0 1 0 8.004735 0 4.002368 4.002368 0 1 0-8.004735 0Z" fill="" /><path d="M837.729662 328.062073m-5.908842 0a5.908842 5.908842 0 1 0 11.817684 0 5.908842 5.908842 0 1 0-11.817684 0Z" fill="" /><path d="M685.819892 243.05297c-12.579455 0-22.681108-10.101653-22.681108-22.682132s10.101653-22.681108 22.681108-22.681107 22.681108 10.101653 22.681108 22.681107-10.101653 22.682132-22.681108 22.682132z m0-32.02099c-5.146048 0-9.339882 4.19281-9.339882 9.339882 0 5.146048 4.19281 9.339882 9.339882 9.339882 5.146048 0 9.339882-4.19281 9.339882-9.339882-0.001024-5.147072-4.193834-9.339882-9.339882-9.339882z" fill="#FBD20A" /><path d="M143.556914 771.973699c0-84.055866 68.045371-152.100213 152.100212-152.100213H757.104836c84.055866 0 152.100213 68.045371 152.100213 152.100213 0 84.055866-68.045371 152.100213-152.100213 152.100213H295.657126c-84.054842 0-152.100213-68.045371-152.100212-152.100213z" fill="#FFFFFF" /><path d="M147.369863 789.508759c0-74.335098 60.230054-134.565153 134.565152-134.565153h496.898716c74.335098 0 134.565153 60.230054 134.565152 134.565153 0 74.335098-60.230054 134.565153-134.565152 134.565153H281.933991c-74.334075 0-134.564129-60.230054-134.564128-134.565153z" fill="#5BBA47" /><path d="M147.369863 766.064857c0-61.373734 49.747516-111.12125 111.12125-111.121251H802.278657c61.373734 0 111.12125 49.747516 111.12125 111.121251 0 61.373734-49.747516 111.12125-111.12125 111.12125H258.299646c-61.183291-0.001024-110.929784-49.747516-110.929783-111.12125z" fill="#7FC344" /><path d="M400.298207 619.68202H297.754044c-84.055866 0-152.100213 68.045371-152.100213 152.100212 0 84.055866 68.045371 152.100213 152.100213 152.100213h102.544163V619.68202z" fill="#FFFFFF" /><path d="M400.298207 655.134049H283.840466c-74.335098 0-134.565153 60.230054-134.565153 134.565153 0 74.335098 60.230054 134.565153 134.565153 134.565152h116.457741V655.134049z" fill="#E7D0A9" /><path d="M400.298207 655.134049H260.396564c-61.373734 0-111.12125 49.747516-111.121251 111.12125 0 61.373734 49.747516 111.12125 111.121251 111.121251h139.901643V655.134049z" fill="#FFE4B8" /><path d="M286.318268 771.973699m-36.405266 0a36.405267 36.405267 0 1 0 72.810533 0 36.405267 36.405267 0 1 0-72.810533 0Z" fill="#FFFFFF" /><path d="M757.104836 608.436687H295.657126c-90.155151 0-163.535988 73.381861-163.535988 163.535988s73.381861 163.535988 163.535988 163.535988H757.104836c90.155151 0 163.535988-73.381861 163.535988-163.535988S847.258963 608.436687 757.104836 608.436687z m0 304.200426H411.733982V644.841954c0-6.289728-5.146048-11.435775-11.435775-11.435775-6.289728 0-11.435775 5.146048-11.435776 11.435775v267.795159h-93.204281c-77.574672 0-140.664438-63.088742-140.664437-140.664438s63.088742-140.664438 140.664437-140.664438H757.104836c77.574672 0 140.664438 63.088742 140.664438 140.664438S834.679508 912.637113 757.104836 912.637113z" fill="" /><path d="M286.318268 724.132657c-26.30259 0-47.841042 21.538452-47.841041 47.841042s21.538452 47.841042 47.841041 47.841042 47.841042-21.538452 47.841042-47.841042c0-26.303614-21.538452-47.841042-47.841042-47.841042z m0 72.809509c-13.723135 0-24.968468-11.245333-24.968467-24.968467s11.245333-24.968468 24.968467-24.968468c13.723135 0 24.968468 11.245333 24.968468 24.968468s-11.245333 24.968468-24.968468 24.968467z" fill="" /><path d="M861.173565 742.048603c-3.621482 0-6.670613-3.04913-6.670613-6.670613 0-22.10978-18.107412-40.217192-40.217192-40.217192-3.621482 0-6.670613-3.050154-6.670613-6.670613s3.04913-6.670613 6.670613-6.670613c29.543187 0 53.559441 24.016254 53.559441 53.559442-0.001024 3.620459-3.050154 6.669589-6.671636 6.669589zM789.506711 695.160798h-10.483562c-3.621482 0-6.670613-3.050154-6.670612-6.670613s3.050154-6.670613 6.670612-6.670613h10.483562c3.621482 0 6.670613 3.050154 6.670613 6.670613s-3.04913 6.670613-6.670613 6.670613zM511.22799 695.160798H448.710576c-3.621482 0-6.670613-3.050154-6.670612-6.670613s3.04913-6.670613 6.670612-6.670613h62.517414c3.621482 0 6.670613 3.050154 6.670613 6.670613s-3.04913 6.670613-6.670613 6.670613z" fill="#FFFFFF" /><path d="M154.611803 824.960788c-31.449662-77.956581 6.289728-166.586142 84.246309-198.035804l427.901131-172.87587c77.956581-31.449662 166.586142 6.099285 198.035804 84.055866 31.449662 77.956581-6.099285 166.586142-84.055866 198.035804L352.83805 909.01563c-77.955557 31.449662-166.776585-6.099285-198.226247-84.054842z" fill="#FFFFFF" /><path d="M164.904923 839.827603c-27.828179-68.807142 5.527957-147.33505 74.335098-175.163229l460.684915-185.837235c68.807142-27.828179 147.33505 5.526933 175.16323 74.335099 27.828179 68.807142-5.526933 147.33505-74.335098 175.16323L340.068152 914.353144c-68.998608 27.636713-147.526517-5.527957-175.163229-74.525541z" fill="#F05225" /><path d="M155.94695 818.098709c-22.872574-56.799015 4.57472-121.603788 61.373734-144.476363l504.14168-203.562737c56.799015-22.872574 121.603788 4.57472 144.476363 61.373734 22.872574 56.799015-4.57472 121.603788-61.373734 144.476363L300.613755 879.472443c-56.990481 23.063017-121.604812-4.383253-144.666805-61.373734z" fill="#F16723" /><path d="M335.683875 587.66103l-95.110755 38.50116c-77.956581 31.449662-115.504503 120.079223-84.055866 198.035804 31.449662 77.956581 120.079223 115.504503 198.035804 84.055866l95.110756-38.50116L335.683875 587.66103z" fill="#FFFFFF" /><path d="M349.026125 620.444814l-108.071096 43.648232c-68.807142 27.828179-102.162254 106.165645-74.335098 175.163229 27.828179 68.807142 106.165645 102.162254 175.163229 74.335099l108.071096-43.648232-100.828131-249.498328z" fill="#E7D0A9" /><path d="M349.026125 620.444814l-129.79999 52.415762c-56.799015 22.872574-84.436751 87.677348-61.373734 144.476362 22.872574 56.799015 87.677348 84.436751 144.476362 61.373734l129.799991-52.415761-83.102629-205.850097z" fill="#FFE4B8" /><path d="M250.483306 771.593837a36.404243 36.404243 0 1 0 72.808485 0 36.404243 36.404243 0 1 0-72.808485 0Z" fill="#FFFFFF" /><path d="M875.469051 533.911146c-33.737021-83.673957-129.228662-124.081591-212.902618-90.345593L234.665301 616.442446c-40.598077 16.39138-72.238181 47.460156-89.392356 87.677349s-17.53506 84.627194-1.143679 125.22527c16.39138 40.598077 47.460156 72.238181 87.86779 89.392356 20.585214 8.76753 42.314109 13.151807 63.851537 13.151807 20.775657 0 41.551314-4.002368 61.373734-12.008127l96.062969-38.692626c0.190443 0 0.571328-0.190443 0.762795-0.190443 0.190443-0.190443 0.571328-0.190443 0.762794-0.380885l330.312573-133.421473c83.483514-34.117907 124.081591-129.609548 90.345593-213.284528zM776.546371 725.46678L455.953541 855.075304l-100.06636-248.163182c-2.28736-5.908842-8.957973-8.76753-14.866815-6.289728-5.908842 2.28736-8.76753 8.957973-6.289728 14.866815l100.066361 248.164206-86.151759 34.879677c-34.879677 14.105044-73.191419 13.723135-107.880654-0.953237s-61.373734-41.9322-75.478778-76.812901-13.723135-73.191419 0.953237-107.690211 42.122642-61.373734 77.003344-75.478778l427.901131-172.87587c17.154175-6.862079 35.071144-10.292095 52.606204-10.292095 55.655335 0 108.451981 33.355112 130.562785 88.058233 28.970835 71.857296-5.909866 154.006687-77.766138 182.978547z" fill="" /><path d="M268.973651 727.181788c-11.817684 4.765162-21.156542 13.913578-26.112147 25.731262s-5.146048 24.778025-0.380886 36.595709c4.765162 11.817684 13.913578 21.156542 25.731262 26.112147 6.099285 2.477802 12.389012 3.811925 18.67874 3.811926a48.286432 48.286432 0 0 0 17.91697-3.43104c24.39714-9.91121 36.405267-37.739389 26.494056-62.326972-9.912234-24.396116-37.740413-36.404243-62.327995-26.493032z m27.255827 67.473019c-6.099285 2.477802-12.961364 2.477802-19.060649-0.190443-6.099285-2.668245-10.864447-7.433407-13.34225-13.723135-2.477802-6.099285-2.477802-12.961364 0.190443-19.060649 2.668245-6.099285 7.433407-10.864447 13.723135-13.34225 3.04913-1.14368 6.289728-1.906474 9.339882-1.906474 9.91121 0 19.251092 5.908842 23.25346 15.629609 4.956629 12.961364-1.334123 27.447294-14.104021 32.593342z" fill="" /><path d="M806.280001 529.147008c-2.668245 0-5.146048-1.524565-6.099285-4.192811-8.386645-20.585214-31.830547-30.496424-52.225319-22.300222-3.43104 1.334123-7.242965-0.190443-8.76753-3.621483-1.334123-3.43104 0.190443-7.242965 3.621482-8.76753 27.255827-11.05489 58.515046 2.28736 69.760379 29.543187 1.334123 3.43104-0.190443 7.242965-3.621482 8.767531-0.953237 0.379861-1.905451 0.571328-2.668245 0.571328zM712.694834 516.376086c-2.668245 0-5.146048-1.524565-6.099285-4.192811-1.334123-3.43104 0.190443-7.242965 3.621483-8.76753l9.720767-4.002367c3.43104-1.334123 7.242965 0.190443 8.76753 3.621482 1.334123 3.43104-0.190443 7.242965-3.621482 8.76753l-9.720768 4.002368c-0.953237 0.380885-1.906474 0.571328-2.668245 0.571328zM406.397491 640.076791c-2.668245 0-5.146048-1.524565-6.099284-4.19281-1.334123-3.43104 0.190443-7.242965 3.621482-8.76753l57.942694-23.443902c3.43104-1.334123 7.242965 0.190443 8.76753 3.621482s-0.190443 7.242965-3.621482 8.76753l-57.942694 23.443902c-0.953237 0.380885-1.906474 0.571328-2.668246 0.571328z" fill="#FFFFFF" /><path d="M188.158382 874.898747c-59.468284-59.468284-59.468284-155.721695 0-215.189978l326.310206-326.310206c59.468284-59.46726 155.721695-59.46726 215.189978 0 59.468284 59.468284 59.468284 155.721695 0 215.189979L403.347337 874.898747c-59.46726 59.46726-155.721695 59.46726-215.188955 0z" fill="#FFFFFF" /><path d="M203.406083 884.619515c-52.606204-52.606204-52.606204-137.614283 0-190.220488l351.279696-351.279696c52.606204-52.606204 137.614283-52.606204 190.220487 0 52.606204 52.606204 52.606204 137.614283 0 190.220487L393.436127 884.619515c-52.414738 52.60518-137.614283 52.60518-190.030044 0z" fill="#FAAF1A" /><path d="M186.633817 868.036668c-43.456765-43.456765-43.456765-113.599053 0-157.055818l384.444366-384.444366c43.456765-43.456765 113.599053-43.456765 157.055818 0s43.456765 113.599053 0 157.055818L343.689635 868.036668c-43.267346 43.456765-113.599053 43.456765-157.055818 0z" fill="#FBD20A" /><path d="M262.111572 585.755579l-72.619067 72.619067c-59.468284 59.468284-59.468284 155.721695 0 215.189979 59.468284 59.468284 155.721695 59.468284 215.189979 0l72.619066-72.619067-215.189978-215.189979z" fill="#FFFFFF" /><path d="M287.081063 610.724047l-82.339834 82.339834c-52.606204 52.606204-52.606204 137.614283 0 190.220487 52.606204 52.606204 137.614283 52.606204 190.220487 0l82.339834-82.339834-190.220487-190.220487z" fill="#E7D0A9" /><path d="M287.081063 610.724047l-98.922681 98.922681c-43.456765 43.456765-43.456765 113.599053 0 157.055817s113.599053 43.456765 157.055818 0l98.922681-98.92268-157.055818-157.055818z" fill="#FFE4B8" /><path d="M252.598653 774.101333a36.404243 36.404243 0 1 0 72.808485 0 36.404243 36.404243 0 1 0-72.808485 0Z" fill="#FFFFFF" /><path d="M785.694786 440.898331c0-43.648231-16.963732-84.817636-48.031484-115.694946-30.87731-30.87731-72.047739-48.031484-115.694946-48.031484-43.648231 0-84.817636 16.963732-115.694947 48.031484L180.152623 651.704033c-30.87731 30.87731-48.031484 72.047739-48.031485 115.694946s16.963732 84.817636 48.031485 115.694946c30.87731 30.87731 72.047739 48.031484 115.694946 48.031485s84.817636-16.963732 115.694946-48.031485l73.953189-73.953189 252.357016-252.357016c30.878334-31.067752 47.842066-72.047739 47.842066-115.885389zM477.30155 784.743597L287.842834 595.28488c-4.384277-4.384277-11.626218-4.384277-16.200938 0-4.384277 4.384277-4.384277 11.627242 0 16.200938L461.099589 800.944534l-65.948454 65.948454c-26.684499 26.684499-61.946086 41.170429-99.494009 41.170429s-73.000976-14.676372-99.494008-41.170429c-26.684499-26.684499-41.170429-61.946086-41.170429-99.494009s14.676372-72.809509 41.170429-99.494008l326.310205-326.310206c26.684499-26.684499 61.945062-41.170429 99.494009-41.170429s72.809509 14.676372 99.494008 41.170429c26.684499 26.684499 41.170429 61.946086 41.170429 99.494009s-14.676372 73.000976-41.170429 99.494009L477.30155 784.743597z" fill="" /><path d="M255.250516 807.806614c9.339882 9.339882 21.538452 13.913578 33.735998 13.913577s24.587582-4.57472 33.737021-13.913577c18.67874-18.67874 18.67874-48.984722 0-67.663462-18.67874-18.67874-48.984722-18.67874-67.663462 0-18.489321 18.67874-18.489321 49.175164 0.190443 67.663462z m16.200937-51.462525c4.765162-4.765162 11.05489-7.242965 17.725503-7.242964s12.961364 2.668245 17.725503 7.242964c4.765162 4.765162 7.242965 11.05489 7.242965 17.725503s-2.668245 12.961364-7.242965 17.725503c-4.765162 4.765162-11.05489 7.242965-17.725503 7.242965s-12.961364-2.668245-17.725503-7.242965c-4.765162-4.765162-7.242965-11.05489-7.242964-17.725503s2.477802-12.96034 7.242964-17.725503z" fill="" /><path d="M674.383093 337.020046c-10.101653-10.101653-23.634345-15.629609-37.929832-15.62961-14.295487 0-27.828179 5.526933-37.929832 15.62961-2.668245 2.668245-2.668245 6.862079 0 9.339882 2.668245 2.668245 6.862079 2.668245 9.339882 0 7.62385-7.62385 17.725503-11.817684 28.399508-11.817685 10.674005 0 20.775657 4.19281 28.399507 11.817685 1.334123 1.334123 3.050154 1.906474 4.765162 1.906474 1.715008 0 3.43104-0.571328 4.765162-1.906474 2.668245-2.478826 2.668245-6.671637 0.190443-9.339882zM581.178812 354.364663l-7.433407 7.433408c-2.668245 2.668245-2.668245 6.862079 0 9.339882 1.334123 1.334123 3.050154 1.906474 4.765162 1.906474 1.715008 0 3.43104-0.571328 4.765162-1.906474l7.433408-7.433408c2.668245-2.668245 2.668245-6.862079 0-9.339882s-6.861056-2.477802-9.530325 0zM384.478154 551.256787l-44.219559 44.029117c-2.668245 2.668245-2.668245 6.862079 0 9.530325 1.334123 1.334123 3.050154 1.906474 4.765162 1.906474s3.43104-0.571328 4.765163-1.906474l44.219559-44.029117c2.668245-2.668245 2.668245-6.862079 0-9.530325-2.668245-2.477802-6.862079-2.477802-9.530325 0z" fill="#FFFFFF" /><path d="M237.523989 910.541219c-77.574672-32.211432-114.551266-121.222903-82.339834-198.797574l176.687795-426.376566c32.211432-77.574672 121.222903-114.551266 198.797575-82.339834 77.574672 32.211432 114.55229 121.222903 82.339834 198.797575L436.321564 828.201385c-32.211432 77.765114-121.222903 114.551266-198.797575 82.339834z" fill="#FFFFFF" /><path d="M255.250516 913.780793c-68.616699-28.399507-101.21004-107.117859-72.809509-175.734558l190.220487-458.968884c28.399507-68.616699 107.117859-101.21004 175.734558-72.809509 68.616699 28.399507 101.21004 107.117859 72.809509 175.734558L430.985074 840.971283c-28.399507 68.616699-107.117859 101.209017-175.734558 72.80951z" fill="#EE3C7A" /><path d="M233.521622 904.82282c-56.608572-23.443902-83.483514-88.439119-60.039612-145.047691l208.137457-502.426672c23.443902-56.608572 88.439119-83.483514 145.04769-60.039612 56.608572 23.443902 83.483514 88.439119 60.039612 145.047691L378.759755 844.783208c-23.443902 56.608572-88.439119 83.483514-145.238133 60.039612z" fill="#F05F88" /><path d="M195.210904 615.108324l-39.263954 94.728846c-32.211432 77.765114 4.57472 166.776585 82.339834 198.988018 77.574672 32.211432 166.586142-4.57472 198.797575-82.339834l39.263954-94.728847-281.137409-116.648183z" fill="#FFFFFF" /><path d="M227.803222 628.641016l-44.600445 107.690211c-28.399507 68.616699 4.19281 147.33505 72.80951 175.734558 68.616699 28.399507 147.33505-4.19281 175.734557-72.80951l44.600445-107.69021-248.544067-102.925049z" fill="#E7D0A9" /><path d="M227.803222 628.641016l-53.559441 129.227639c-23.443902 56.608572 3.43104 121.603788 60.039611 145.04769 56.608572 23.443902 121.603788-3.43104 145.047691-60.039611l53.559441-129.227639-205.087302-85.008079z" fill="#FFE4B8" /><path d="M255.796247 778.80199a36.405267 36.405267 0 1 0 72.810533 0 36.405267 36.405267 0 1 0-72.810533 0Z" fill="#FFFFFF" /><path d="M535.053802 192.543683c-40.407634-16.773289-84.817636-16.773289-125.225271 0s-71.857296 48.221927-88.629561 88.439119l-176.497353 426.376566c-34.498792 83.293071 5.146048 179.165597 88.439119 213.664389 20.203305 8.386645 41.360872 12.579455 62.707857 12.579455 21.156542 0 42.314109-4.19281 62.517414-12.579455 40.407634-16.773289 71.857296-48.221927 88.629561-88.629561l39.64484-95.872526c0.190443-0.190443 0.190443-0.380885 0.380886-0.571328 0.190443-0.380885 0.190443-0.762795 0.380885-0.953238L623.68234 406.209097c34.499816-83.294095-5.335466-179.166621-88.628538-213.665414z m67.473019 204.89686l-132.277793 319.257683-247.401411-102.353721c-5.908842-2.477802-12.579455 0.380885-14.866815 6.099285-2.477802 5.908842 0.380885 12.579455 6.099285 14.866815L461.291055 737.855792l-35.642472 85.961316c-14.48593 34.689235-41.551314 61.754619-76.240549 76.24055-34.689235 14.295487-73.000976 14.295487-107.69021 0-71.665829-29.73363-105.974179-112.26493-76.240549-183.93076l176.687795-426.376566c29.73363-71.665829 112.26493-105.974179 183.930759-76.240549 71.856272 29.925096 106.164622 112.26493 76.430992 183.93076z" fill="" /><path d="M273.929256 823.054314c5.908842 2.477802 12.19857 3.621482 18.297855 3.621482 18.869183 0 36.595709-11.05489 44.219559-29.543187 10.101653-24.39714-1.524565-52.415761-25.921705-62.517414-11.817684-4.955605-24.778025-4.955605-36.595709 0-11.817684 4.955605-20.9661 14.10402-25.921705 25.921705-10.102677 24.39714 1.524565 52.415761 25.921705 62.517414z m-4.765162-53.74886c2.477802-6.099285 7.433407-10.864447 13.532692-13.532693 3.04913-1.334123 6.289728-1.906474 9.530325-1.906474s6.48017 0.571328 9.530324 1.906474c12.769898 5.33649 18.869183 19.82242 13.532693 32.593342-5.33649 12.769898-19.82242 18.869183-32.593342 13.532692-12.769898-5.337514-18.869183-19.823444-13.532692-32.593341z" fill="" /><path d="M417.452381 265.735102c-0.762795 0-1.715008-0.190443-2.477802-0.571328-3.43104-1.334123-4.955605-5.33649-3.621483-8.76753 11.435775-27.255827 42.694994-40.217192 69.950822-28.97186 3.43104 1.334123 4.955605 5.33649 3.621482 8.767531-1.334123 3.43104-5.33649 4.955605-8.76753 3.621482-20.394772-8.577087-44.029117 1.334123-52.415761 21.728894-1.14368 2.667221-3.621482 4.19281-6.289728 4.192811zM403.919689 298.136977c-0.953237 0-1.715008-0.190443-2.668245-0.571328-3.43104-1.334123-4.955605-5.33649-3.621483-8.76753l4.002368-9.530325c1.334123-3.43104 5.33649-4.955605 8.76753-3.621482 3.43104 1.334123 4.955605 5.33649 3.621483 8.76753l-4.002368 9.530324c-0.953237 2.668245-3.43104 4.19281-6.099285 4.192811zM277.360296 603.290639c-0.762795 0-1.715008-0.190443-2.477803-0.571328-3.43104-1.334123-4.955605-5.33649-3.621482-8.76753l24.016254-57.752251c1.334123-3.43104 5.33649-4.955605 8.76753-3.621483 3.43104 1.334123 4.955605 5.33649 3.621482 8.76753L283.650023 599.097829c-1.14368 2.668245-3.621482 4.19281-6.289727 4.19281z" fill="#FFFFFF" /><path d="M295.657126 924.073912c-84.055866 0-152.100213-68.045371-152.100212-152.100213V310.335546c0-84.055866 68.045371-152.100213 152.100212-152.100212 84.055866 0 152.100213 68.045371 152.100213 152.100212v461.446686c0.191467 84.246308-68.044347 152.291679-152.100213 152.29168z" fill="#FFFFFF" /><path d="M313.383653 920.261987c-74.335098 0-134.565153-60.230054-134.565153-134.565153V288.988561c0-74.335098 60.230054-134.565153 134.565153-134.565152 74.335098 0 134.565153 60.230054 134.565153 134.565152v496.898716c0 74.143632-60.230054 134.37471-134.565153 134.37471z" fill="#3769A5" /><path d="M289.939751 920.261987c-61.373734 0-111.12125-49.747516-111.121251-111.121251V265.353192c0-61.373734 49.747516-111.12125 111.121251-111.12125 61.373734 0 111.12125 49.747516 111.12125 111.12125v543.787544c-0.001024 61.373734-49.747516 111.12125-111.12125 111.121251z" fill="#4E9BD4" /><path d="M143.556914 667.332619v102.544163c0 84.055866 68.045371 152.100213 152.100212 152.100213 84.055866 0 152.100213-68.045371 152.100213-152.100213V667.332619H143.556914z" fill="#FFFFFF" /><path d="M178.8185 667.332619v116.45774c0 74.335098 60.230054 134.565153 134.565153 134.565153 74.335098 0 134.565153-60.230054 134.565153-134.565153V667.332619H178.8185z" fill="#E7D0A9" /><path d="M178.8185 667.332619V807.234262c0 61.373734 49.747516 111.12125 111.121251 111.12125 61.373734 0 111.12125-49.747516 111.12125-111.12125V667.332619H178.8185z" fill="#FFE4B8" /><path d="M447.948806 678.769418H168.716848c-6.289728 0-11.435775-5.146048-11.435775-11.435775s5.146048-11.435775 11.435775-11.435776h279.231958c6.289728 0 11.435775 5.146048 11.435775 11.435776s-5.146048 11.435775-11.435775 11.435775z" fill="" /><path d="M295.657126 781.312557m-36.405266 0a36.405267 36.405267 0 1 0 72.810533 0 36.405267 36.405267 0 1 0-72.810533 0Z" fill="#FFFFFF" /><path d="M447.948806 415.738397c-6.289728 0-11.435775 5.146048-11.435775 11.435775v344.60806c0 77.574672-63.088742 140.664438-140.664438 140.664438s-140.664438-63.088742-140.664438-140.664438V477.684483c0-6.289728-5.146048-11.435775-11.435775-11.435775-6.289728 0-11.435775 5.146048-11.435775 11.435775v294.098773c0 90.155151 73.381861 163.535988 163.535988 163.535988s163.535988-73.381861 163.535988-163.535988v-344.609084c0-6.289728-5.146048-11.435775-11.435775-11.435775zM447.948806 366.753676c-6.289728 0-11.435775 5.146048-11.435775 11.435775v24.016254c0 6.289728 5.146048 11.435775 11.435775 11.435775 6.289728 0 11.435775-5.146048 11.435775-11.435775v-24.016254c0-6.289728-5.146048-11.435775-11.435775-11.435775zM143.556914 462.054874c6.289728 0 11.435775-5.146048 11.435775-11.435775V310.525989c0-77.574672 63.088742-140.664438 140.664437-140.664437S436.321564 232.951317 436.321564 310.525989v42.504552c0 6.289728 5.146048 11.435775 11.435775 11.435775s11.435775-5.146048 11.435775-11.435775v-42.504552c0-90.155151-73.381861-163.535988-163.535988-163.535988s-163.535988 73.381861-163.535988 163.535988v140.092086c0 6.290751 5.146048 11.436799 11.435776 11.436799z" fill="" /><path d="M247.816085 781.312557c0 26.30259 21.538452 47.841042 47.841041 47.841042s47.841042-21.538452 47.841042-47.841042-21.538452-47.841042-47.841042-47.841042-47.841042 21.538452-47.841041 47.841042z m72.810533 0c0 13.723135-11.245333 24.968468-24.968468 24.968468-13.723135 0-24.968468-11.245333-24.968467-24.968468 0-13.723135 11.245333-24.968468 24.968467-24.968468 13.723135 0 24.968468 11.245333 24.968468 24.968468z" fill="" /><path d="M212.365079 260.016702c-3.621482 0-6.670613-3.04913-6.670613-6.670613 0-29.543187 24.016254-53.559441 53.559442-53.559441 3.621482 0 6.670613 3.04913 6.670612 6.670613s-3.04913 6.670613-6.670612 6.670613c-22.10978 0-40.217192 18.107412-40.217192 40.217191-0.001024 3.622506-3.050154 6.671637-6.671637 6.671637zM212.365079 295.278289c-3.621482 0-6.670613-3.04913-6.670613-6.670613v-10.483562c0-3.621482 3.04913-6.670613 6.670613-6.670613s6.670613 3.04913 6.670613 6.670613v10.483562c0 3.620459-3.04913 6.670613-6.670613 6.670613zM212.365079 625.590862c-3.621482 0-6.670613-3.050154-6.670613-6.670613V556.402835c0-3.621482 3.04913-6.670613 6.670613-6.670613s6.670613 3.050154 6.670613 6.670613v62.517414c0 3.621482-3.04913 6.670613-6.670613 6.670613z" fill="#FFFFFF" /></svg>